<svg height="393pt" viewBox="-38 0 393 393.22112" width="393pt" xmlns="http://www.w3.org/2000/svg"><path d="m191.828125 205.085938c25.496094-17.886719 43.3125-44.460938 50.175781-74.839844 3.242188.496094 6.535156.832031 9.914063.832031 36.136719 0 65.539062-29.398437 65.539062-65.539063 0-36.136718-29.402343-65.539062-65.539062-65.539062-28.984375 0-53.59375 18.929688-62.21875 45.058594h-163.0625c-11.292969 0-20.480469 9.1875-20.480469 20.480468 0 11.292969 9.1875 20.480469 20.480469 20.480469h20.796875v17.339844c0 18.382813 4.113281 36.285156 11.660156 52.558594l-56.574219 48.011719c-2.875 2.441406-3.226562 6.75-.785156 9.628906 1.351563 1.585937 3.269531 2.40625 5.207031 2.40625 1.558594 0 3.128906-.53125 4.414063-1.621094l54.300781-46.082031c3.546875 5.847656 7.546875 11.429687 12.023438 16.652343l-27.050782 22.960938c-2.875 2.4375-3.226562 6.746094-.785156 9.625 1.347656 1.589844 3.269531 2.40625 5.207031 2.40625 1.558594 0 3.128907-.53125 4.414063-1.617188l27.699218-23.511718c3.9375 3.683594 8.109376 7.152344 12.550782 10.328125l1.117187.800781c4.910157 3.519531 7.707031 8.996094 7.679688 15.027344-.027344 6.042968-2.882813 11.492187-7.824219 14.960937-33.347656 23.40625-53.253906 61.699219-53.253906 102.441407v13.925781h-20.796875c-11.292969 0-20.480469 9.1875-20.480469 20.480469 0 11.292968 9.1875 20.480468 20.480469 20.480468h238.933593c11.292969 0 20.480469-9.1875 20.480469-20.480468 0-11.292969-9.1875-20.480469-20.480469-20.480469h-20.480468v-14.640625c0-40.273438-19.546875-78.3125-52.273438-101.746094l-1.125-.800781c-4.910156-3.519531-7.710937-9-7.675781-15.035157.027344-6.039062 2.875-11.484374 7.8125-14.953124zm60.089844-191.433594c28.613281 0 51.882812 23.273437 51.882812 51.886718 0 28.613282-23.273437 51.886719-51.882812 51.886719-28.613281 0-51.886719-23.273437-51.886719-51.886719 0-28.613281 23.273438-51.886718 51.886719-51.886718zm-232.109375 51.886718c0-3.765624 3.0625-6.828124 6.828125-6.828124h160.101562c-.234375 2.246093-.363281 4.523437-.363281 6.828124 0 2.304688.128906 4.582032.363281 6.828126h-160.101562c-3.765625 0-6.828125-3.0625-6.828125-6.828126zm252.585937 307.199219c0 3.769531-3.058593 6.828125-6.824219 6.828125h-238.933593c-3.765625 0-6.828125-3.058594-6.828125-6.828125 0-3.765625 3.0625-6.824219 6.828125-6.824219h238.933593c3.765626 0 6.824219 3.058594 6.824219 6.824219zm-88.664062-126.570312 1.125.804687c29.167969 20.878906 46.582031 54.769532 46.582031 90.648438v14.636718h-170.351562v-13.925781c0-36.292969 17.738281-70.414062 47.445312-91.265625 8.613281-6.046875 13.585938-15.546875 13.632812-26.066406.050782-10.519531-4.828124-20.066406-13.367187-26.1875l-1.125-.808594c-3.523437-2.519531-6.863281-5.238281-10.03125-8.121094l8.667969-7.359374c2.875-2.441407 3.230468-6.746094.789062-9.625-2.449218-2.867188-6.753906-3.214844-9.625-.789063l-9.382812 7.964844c-4.488282-5.222657-8.453125-10.84375-11.890625-16.765625l9.707031-8.238282c2.878906-2.441406 3.226562-6.746093.789062-9.625-2.433593-2.867187-6.742187-3.214843-9.621093-.789062l-7.140625 6.058594c-5.734375-13.5625-8.847656-28.277344-8.847656-43.355469v-17.339844h128.613281c6.207031 18.808594 20.710937 33.824219 39.167969 40.792969-.039063.132812-.132813.226562-.164063.363281-6.105469 27.082031-21.988281 50.78125-44.710937 66.734375-8.613282 6.042969-13.582032 15.539063-13.628907 26.0625-.054687 10.519532 4.828125 20.066406 13.367188 26.195313zm0 0"/><path d="m122.230469 102.332031-15.820313 13.429688c-2.875 2.4375-3.226562 6.746093-.789062 9.625 1.355468 1.585937 3.273437 2.40625 5.214844 2.40625 1.558593 0 3.125-.53125 4.414062-1.617188l15.820312-13.429687c2.875-2.4375 3.226563-6.746094.785157-9.625-2.445313-2.867188-6.738281-3.222656-9.625-.789063zm0 0"/><path d="m241.484375 91.539062c1.324219 1.28125 3.03125 1.914063 4.738281 1.914063 1.746094 0 3.492188-.667969 4.828125-2l31.710938-31.707031c2.667969-2.664063 2.667969-6.984375 0-9.652344-2.664063-2.664062-6.988281-2.664062-9.652344 0l-26.972656 26.96875-9.960938-9.609375c-2.714843-2.617187-7.035156-2.53125-9.652343.175781-2.621094 2.714844-2.539063 7.039063.171874 9.652344zm0 0"/></svg>